<mxfile host="app.diagrams.net" modified="2023-06-19T02:59:26.343Z" agent="Mozilla/5.0 (Windows NT 10.0; Win64; x64) AppleWebKit/537.36 (KHTML, like Gecko) Chrome/95.0.4638.69 Safari/537.36" version="21.3.8" etag="IuIFvTaSt98GpwPA_SGR" type="github">
  <diagram name="第 1 页" id="EZ1EL4ON5sfimxWH7CzW">
    <mxGraphModel>
      <root>
        <mxCell id="0" />
        <mxCell id="1" parent="0" />
      </root>
    </mxGraphModel>
  </diagram>
</mxfile>
